<?xml version="1.0" encoding="utf-8"?>
<!-- Generator: Adobe Illustrator 26.0.0, SVG Export Plug-In . SVG Version: 6.00 Build 0)  -->
<svg version="1.1" id="Capa_1" xmlns="http://www.w3.org/2000/svg" xmlns:xlink="http://www.w3.org/1999/xlink" x="0px" y="0px"
	 viewBox="0 0 297 297" style="enable-background:new 0 0 297 297;" xml:space="preserve">
<style type="text/css">
	.st0{fill:#FFFFFF;}
</style>
<g>
	<path class="st0" d="M292,140.9c-9.9-42.5-36.8-63.6-67.6-56.5c-39.7,9.2-26.5,76.8-100.5,79c-4.7,0.1-6.7-5.9-2.8-8.5
		c15.8-10.8,37.7-32.2,23.5-62.4C125.2,51.1,84.5,46.8,33.5,77.8c-5.6,3.4-7.2,10.8-3.5,16.2l4.6,6.8c3.2,4.8,9.5,6.4,14.6,3.8
		c16.1-8.2,49.9-22.4,62-4.2c10.1,15.1-0.9,34.5-31.5,42.6c-5.3,1.4-8.8,6.4-8.4,11.9l1.8,23.6c0.4,5.2,4.3,9.5,9.5,10.4
		c15.8,2.7,46.3,12.7,35.9,48.3c-12.4,42.6-86.2,14-113.1-34.1c-1.5-2.7-5.6-1.2-5,1.8C7.1,238.2,28,297,91.7,297
		c89.1,0,59.4-106.1,59.4-106.1s45.3-11.1,70-51.6c14.6-23.9,47.3-9.9,48,29.9c0.9,51.8-44.6,73.3-66.7,55.6
		c-3.8-3-6.8-7.2-9.1-11.1c-1.5-2.6-5.5-1.5-5.4,1.6c0.8,19.5,6.8,54,39.2,55.6C286.5,273.7,306.8,204.4,292,140.9z"/>
	<path class="st0" d="M178.4,41.9c2.5,2.4,6.4,2.4,8.8-0.2l14.7-15.9c2.2-2.3,2.2-5.9,0-8.3L187.4,2c-2.4-2.6-6.6-2.6-9,0
		l-15.2,16.6c-2.2,2.4-2.1,6.1,0.2,8.4L178.4,41.9z"/>
	<path class="st0" d="M257.3,55.6c2.6-2.1,3-5.9,1-8.5L244,28.8c-2.2-2.8-6.3-3.1-8.9-0.8c-35.5,31.8-64.9,25.7-84.2,13.7
		c-5.6-3.5-12,3.3-8.2,8.7C183.5,108.4,240.9,68.9,257.3,55.6z"/>
</g>
</svg>
